<?xml version="1.0" encoding="utf-8"?>
<!-- Generator: Adobe Illustrator 25.0.0, SVG Export Plug-In . SVG Version: 6.00 Build 0)  -->
<svg version="1.1" id="Layer_1" xmlns="http://www.w3.org/2000/svg" xmlns:xlink="http://www.w3.org/1999/xlink" x="0px" y="0px"
	 viewBox="0 0 492 492" style="enable-background:new 0 0 492 492;" xml:space="preserve">
<style type="text/css">
	.st0{fill-rule:evenodd;clip-rule:evenodd;fill:url(#SVGID_1_);}
	.st1{fill:#FFFFFD;}
</style>
<linearGradient id="SVGID_1_" gradientUnits="userSpaceOnUse" x1="122.029" y1="31.5651" x2="370.4921" y2="461.9158">
	<stop  offset="0" style="stop-color:#4859A8"/>
	<stop  offset="0.49" style="stop-color:#00BEDA"/>
	<stop  offset="1" style="stop-color:#00A8B4"/>
</linearGradient>
<circle class="st0" cx="246.26" cy="246.74" r="245.76"/>
<path class="st1" d="M149.26,225.32l198.91-121.9l-0.01-0.01c2.12-1.3,4.89-0.63,6.19,1.49c1.03,1.68,0.83,3.76-0.35,5.2
	l-82.13,109.9l71.51,40.26l-2.2,3.92l2.21-3.92c2.17,1.22,2.93,3.96,1.71,6.13c-0.45,0.79-1.09,1.4-1.84,1.78l-198.91,121.9
	l0.01,0.01c-2.12,1.3-4.89,0.63-6.19-1.49c-1.03-1.68-0.83-3.76,0.35-5.2l82.13-109.89l-71.51-40.26l2.2-3.92l-2.21,3.92
	c-2.17-1.22-2.93-3.96-1.71-6.13C147.86,226.31,148.51,225.71,149.26,225.32L149.26,225.32z M332.9,123.3L160.2,229.14l69.11,38.91
	c0.24,0.12,0.48,0.26,0.7,0.43c1.99,1.49,2.4,4.31,0.91,6.3l0,0l-71.3,95.4l172.7-105.84l-69.11-38.91
	c-0.24-0.12-0.48-0.26-0.7-0.43c-1.99-1.49-2.4-4.31-0.91-6.3l0,0L332.9,123.3z"/>
</svg>
